<svg width="41" height="42" viewBox="0 0 41 42" fill="none" xmlns="http://www.w3.org/2000/svg">
<path d="M18.8113 10.915C19.5852 11.9784 19.9721 13.2469 19.9721 14.7306C19.9721 16.2552 19.5852 17.4853 18.8011 18.4129C18.3603 18.9279 17.7171 19.4046 16.8664 19.8325C18.1579 20.2989 19.1316 21.0343 19.7953 22.0388C20.4513 23.0433 20.7819 24.2656 20.7819 25.7006C20.7819 27.1818 20.4052 28.5117 19.6518 29.6853C19.1752 30.4617 18.5756 31.1203 17.8581 31.6507C17.0101 32.2785 16.0319 32.7076 14.9958 32.9064C13.8939 33.1319 12.7023 33.2421 11.4159 33.2421H0V8.25H12.2436C15.334 8.29612 17.5198 9.18275 18.8113 10.915ZM5.05069 12.5909V18.1054H11.2109C12.3077 18.1054 13.202 17.8978 13.8913 17.4853C14.5755 17.0727 14.9214 16.3398 14.9214 15.2918C14.9214 14.1233 14.4679 13.3571 13.5607 12.9804C12.7766 12.7216 11.7773 12.5909 10.5652 12.5909H5.05069ZM5.05069 22.2413V28.9063H11.2033C12.3026 28.9063 13.161 28.7602 13.7709 28.4656C14.883 27.9172 15.4365 26.8819 15.4365 25.3444C15.4365 24.0401 14.9009 23.1484 13.8247 22.6615C13.2199 22.3924 12.3743 22.2489 11.2878 22.2413H5.05069ZM36.0979 15.138C37.4074 15.7146 38.4836 16.6268 39.3318 17.8722C40.1057 18.9715 40.6028 20.2451 40.8283 21.6929C40.9616 22.5385 41.0128 23.7659 40.9923 25.3624H27.3419C27.4239 27.2151 28.0696 28.5168 29.3047 29.2599C30.053 29.7238 30.9499 29.9569 32.0082 29.9569C33.1203 29.9569 34.0274 29.6751 34.7244 29.1113C35.1088 28.8038 35.4445 28.381 35.7341 27.8403H40.7361C40.6028 28.9345 39.9955 30.0492 38.9218 31.1818C37.2434 32.9756 34.8936 33.875 31.8724 33.875C29.3765 33.875 27.1779 33.1191 25.2739 31.6021C23.3623 30.0876 22.4116 27.6199 22.4116 24.2041C22.4116 21.001 23.2726 18.5436 24.9921 16.8344C26.7166 15.1303 28.946 14.2719 31.6904 14.2719C33.3253 14.2693 34.7936 14.5589 36.0979 15.138ZM28.7717 19.3123C28.0799 20.017 27.6443 20.9702 27.4649 22.1721H35.9083C35.8186 20.8882 35.3804 19.9171 34.604 19.2482C33.8173 18.5846 32.8513 18.254 31.6956 18.254C30.4425 18.2566 29.4636 18.6102 28.7717 19.3123ZM26.199 12.5268H37.0563V9.41594H26.199V12.5268Z" fill="#111618"/>
</svg>
