<svg width="46" height="48" viewBox="0 0 46 48" fill="none" xmlns="http://www.w3.org/2000/svg">
<path d="M40.381 1.40768C38.9163 1.40768 36.9412 1.05632 35.5622 1.56055C31.5758 3.01821 31.1533 8.15231 31.2715 11.6718C31.4231 16.1882 35.5677 18.2529 39.6769 17.4372C41.7951 17.0168 42.5679 15.4127 43.1755 13.5281C43.7662 11.696 44.7825 9.95778 44.7378 8.00295C44.6736 5.20033 42.0275 3.43489 40.381 1.80078" stroke="#B4D8E4" stroke-width="2.1291" stroke-linecap="round"/>
<path d="M8.54443 7.67578C10.0983 7.99404 11.1811 11.3114 11.997 12.5648C13.332 14.6155 14.6373 16.6494 15.8759 18.7635C18.0357 22.4499 20.1065 26.3073 22.7385 29.6765" stroke="#B4D8E4" stroke-width="2.1291" stroke-linecap="round"/>
<path d="M7.95369 7.67578C7.71511 7.67578 7.64004 7.71592 7.44887 7.874C6.64821 8.53605 5.62273 9.252 5.12564 10.1692C4.91705 10.554 5.0225 11.1529 5.0225 11.5619C5.0225 12.4408 5.05364 13.1865 5.52189 13.9614C6.24158 15.1525 7.06662 15.3901 8.4205 15.375C9.27597 15.3655 10.2782 15.3168 11.0803 14.9995C11.2646 14.9265 11.7999 14.7351 11.6014 14.7178C10.7169 14.6405 9.67148 15.4161 9.14787 16.0271C8.49769 16.7858 8.53992 18.1485 8.53992 19.0629C8.53992 20.006 9.70067 20.7344 10.4289 21.1703C11.1882 21.6249 12.4035 21.764 13.2624 21.4677C14.017 21.2073 14.9587 20.6441 15.5965 20.1844C16.1822 19.7623 14.5493 21.2003 14.2177 21.8276C13.7812 22.6535 13.769 23.6311 13.6749 24.5348C13.6249 25.015 13.5557 25.556 13.6369 26.0371C13.8826 27.4929 15.3598 29.7623 17.1815 28.687C18.246 28.0586 19.1899 26.9197 19.1899 25.7033" stroke="#B4D8E4" stroke-width="2.1291" stroke-linecap="round"/>
<path d="M3.96098 11.2526C3.50366 11.2526 2.77741 11.1258 2.39495 11.4121C1.47774 12.0989 1.22815 13.9059 1.63857 14.9221C2.04986 15.9404 2.5657 17.1934 3.71596 17.5173C5.12183 17.9132 6.09352 16.9928 7.125 16.1346" stroke="#B4D8E4" stroke-width="2.1291" stroke-linecap="round"/>
<path d="M5.25391 18.3213C4.40775 18.3213 4.28613 19.5362 4.28613 20.1409C4.28613 21.1608 4.54197 21.9417 5.4152 22.6249C6.23182 23.2638 8.07355 23.5188 9.04974 23.044C9.4946 22.8276 10.4985 22.4082 10.6734 21.9093" stroke="#B4D8E4" stroke-width="2.1291" stroke-linecap="round"/>
<path d="M37.1479 18.3213C36.7899 18.8067 36.9862 19.7784 36.9862 20.3325C36.9862 22.9227 37.2886 25.4523 37.5522 28.0229C37.9756 32.1517 38.2244 36.2668 38.9088 40.3647C39.2279 42.2755 39.2247 44.1177 39.7713 45.9997" stroke="#B4D8E4" stroke-width="2.1291" stroke-linecap="round"/>
<path d="M36.2227 19.0312C34.6686 21.8776 34.2781 25.4368 33.6186 28.5547C33.4013 29.5821 32.273 34.6447 30.8451 34.6447C29.0218 34.6447 27.253 33.0654 25.7795 32.1057C24.7679 31.4468 23.7932 30.4625 22.7384 29.9281" stroke="#B4D8E4" stroke-width="2.1291" stroke-linecap="round"/>
<path d="M36.011 19.0312C37.7253 21.0942 38.6171 23.7517 39.6257 26.1869C40.6368 28.6282 41.4843 31.1281 42.46 33.5826C42.5882 33.905 43.4813 36.7738 43.2942 36.7738C42.3772 36.7738 41.5424 36.1452 40.8186 35.6715C39.4346 34.7659 37.9631 34.0895 36.4954 33.3337C34.0295 32.0639 31.565 30.8434 28.9969 29.787C27.6053 29.2145 26.1243 28.8585 24.7095 28.347C23.6617 27.9681 22.4342 27.8314 21.3191 27.8314" stroke="#B4D8E4" stroke-width="2.1291" stroke-linecap="round"/>
<path d="M37.6422 14.0632C38.0864 14.0632 38.5539 13.8965 38.9502 13.7667C39.1427 13.7037 39.2831 13.6144 39.4438 13.5175C39.5475 13.455 39.6827 13.4149 39.7713 13.3535" stroke="#B4D8E4" stroke-width="2.1291" stroke-linecap="round"/>
</svg>
