<svg width="774" height="74" viewBox="0 0 774 74" fill="none" xmlns="http://www.w3.org/2000/svg">
<path d="M749.911 73.7483C745.495 73.7483 741.463 72.6122 737.815 70.3402C734.199 68.0682 731.303 65.0122 729.127 61.1722C726.983 57.3322 725.911 53.0922 725.911 48.4522C725.911 44.9642 726.535 41.7002 727.783 38.6602C729.031 35.5882 730.743 32.9002 732.919 30.5962C735.127 28.2602 737.687 26.4362 740.599 25.1242C743.511 23.8122 746.615 23.1562 749.911 23.1562C753.751 23.1562 757.255 24.0042 760.423 25.7002C763.623 27.3642 766.311 29.6362 768.487 32.5162C770.695 35.3642 772.263 38.5802 773.191 42.1642C774.119 45.7482 774.215 49.4442 773.479 53.2522H741.463C741.911 54.3722 742.503 55.3962 743.239 56.3242C744.007 57.2202 744.935 57.9402 746.023 58.4842C747.143 59.0282 748.439 59.3163 749.911 59.3483C751.319 59.3803 752.615 59.0762 753.799 58.4362C755.015 57.7962 756.071 56.9323 756.967 55.8443L771.655 59.2523C769.703 63.5083 766.791 66.9963 762.919 69.7163C759.047 72.4043 754.711 73.7483 749.911 73.7483ZM740.935 42.6922H758.935C758.487 41.3162 757.815 40.1002 756.919 39.0442C756.023 37.9882 754.967 37.1562 753.751 36.5483C752.567 35.9403 751.287 35.6362 749.911 35.6362C748.567 35.6362 747.287 35.9403 746.071 36.5483C744.887 37.1562 743.847 37.9882 742.951 39.0442C742.087 40.1002 741.415 41.3162 740.935 42.6922Z" fill="#111618"/>
<path d="M703.948 72.5V0.5H718.347V72.5H703.948Z" fill="#111618"/>
<path d="M649.246 55.076V24.5H663.646V51.044C663.646 52.548 664.014 53.924 664.75 55.172C665.486 56.388 666.462 57.364 667.678 58.1C668.926 58.804 670.286 59.156 671.758 59.156C673.262 59.156 674.622 58.804 675.838 58.1C677.086 57.364 678.062 56.388 678.766 55.172C679.502 53.924 679.87 52.548 679.87 51.044V24.5H694.27L694.318 72.5H679.918L679.87 69.38C678.27 70.756 676.446 71.828 674.398 72.596C672.35 73.364 670.19 73.748 667.918 73.748C664.494 73.748 661.358 72.916 658.51 71.252C655.694 69.556 653.438 67.3 651.742 64.484C650.078 61.668 649.246 58.532 649.246 55.076Z" fill="#111618"/>
<path d="M641.582 41.828V72.5H627.182V45.86C627.182 44.356 626.814 42.996 626.078 41.78C625.342 40.532 624.366 39.556 623.15 38.852C621.934 38.116 620.574 37.748 619.07 37.748C617.566 37.748 616.19 38.116 614.942 38.852C613.726 39.556 612.75 40.532 612.014 41.78C611.31 42.996 610.958 44.356 610.958 45.86V72.5H596.558L596.51 0.5H610.91L610.958 27.524C612.558 26.148 614.382 25.076 616.43 24.308C618.478 23.54 620.638 23.156 622.91 23.156C626.366 23.156 629.502 24.004 632.318 25.7C635.134 27.364 637.374 29.604 639.038 32.42C640.734 35.236 641.582 38.372 641.582 41.828Z" fill="#111618"/>
<path d="M555.239 73.748C550.535 73.748 546.167 72.8359 542.135 71.0119C538.135 69.188 534.647 66.6759 531.671 63.4759C528.695 60.2439 526.375 56.516 524.711 52.292C523.047 48.068 522.215 43.572 522.215 38.804C522.215 33.652 523.127 28.9639 524.951 24.7399C526.807 20.5159 529.303 16.8679 532.439 13.7959C535.607 10.6919 539.175 8.30795 543.143 6.64395C547.143 4.97995 551.271 4.14795 555.527 4.14795C560.199 4.14795 564.807 5.23595 569.351 7.41195C573.895 9.58795 577.991 13.1079 581.639 17.9719L568.775 24.8839C566.823 22.6759 564.679 21.0599 562.343 20.0359C560.039 18.9799 557.703 18.4519 555.335 18.4519C552.935 18.4519 550.615 18.9479 548.375 19.9399C546.135 20.9319 544.135 22.3399 542.375 24.1639C540.615 25.9879 539.207 28.1639 538.151 30.6919C537.127 33.2199 536.615 36.0199 536.615 39.0919C536.615 41.908 537.095 44.548 538.055 47.012C539.047 49.476 540.407 51.6359 542.135 53.4919C543.863 55.3159 545.863 56.756 548.135 57.812C550.407 58.836 552.839 59.3479 555.431 59.3479C556.903 59.3479 558.359 59.1559 559.799 58.7719C561.271 58.3559 562.695 57.7479 564.071 56.9479C565.447 56.1479 566.743 55.124 567.959 53.8759C569.175 52.6279 570.279 51.1559 571.271 49.4599H562.247V36.9799H588.263C588.519 42.004 587.831 46.74 586.199 51.188C584.599 55.604 582.279 59.5079 579.239 62.9C576.199 66.292 572.631 68.948 568.535 70.868C564.439 72.7879 560.007 73.748 555.239 73.748Z" fill="#111618"/>
<path d="M491.488 41.828V72.5H477.088V45.86C477.088 44.356 476.72 42.996 475.984 41.78C475.248 40.532 474.272 39.556 473.056 38.852C471.84 38.116 470.48 37.748 468.976 37.748C467.472 37.748 466.096 38.116 464.848 38.852C463.632 39.556 462.656 40.532 461.92 41.78C461.216 42.996 460.864 44.356 460.864 45.86V72.5H446.464L446.416 0.5H460.816L460.864 27.524C462.464 26.148 464.288 25.076 466.336 24.308C468.384 23.54 470.544 23.156 472.816 23.156C476.272 23.156 479.408 24.004 482.224 25.7C485.04 27.364 487.28 29.604 488.944 32.42C490.64 35.236 491.488 38.372 491.488 41.828Z" fill="#111618"/>
<path d="M414.881 23.156C419.553 23.156 423.809 24.292 427.649 26.564C431.489 28.836 434.545 31.892 436.817 35.732C439.089 39.54 440.225 43.764 440.225 48.404C440.225 51.892 439.569 55.172 438.257 58.244C436.945 61.316 435.121 64.02 432.785 66.356C430.481 68.66 427.793 70.468 424.721 71.78C421.681 73.092 418.401 73.748 414.881 73.748C412.353 73.748 410.081 73.204 408.065 72.116C406.049 71.028 404.289 69.652 402.785 67.988V72.5H388.385V0.5H402.785V28.916C404.289 27.22 406.049 25.844 408.065 24.788C410.081 23.7 412.353 23.156 414.881 23.156ZM414.689 59.828C416.673 59.828 418.481 59.316 420.113 58.292C421.745 57.268 423.041 55.892 424.001 54.164C424.961 52.436 425.441 50.516 425.441 48.404C425.441 46.324 424.961 44.42 424.001 42.692C423.041 40.964 421.745 39.588 420.113 38.564C418.481 37.508 416.673 36.98 414.689 36.98C412.737 36.98 410.945 37.508 409.313 38.564C407.713 39.588 406.433 40.964 405.473 42.692C404.513 44.42 404.033 46.324 404.033 48.404C404.033 50.516 404.513 52.436 405.473 54.164C406.433 55.892 407.713 57.268 409.313 58.292C410.945 59.316 412.737 59.828 414.689 59.828Z" fill="#111618"/>
<path d="M364.349 24.5002H378.749V72.5003H364.301L363.629 68.1803C362.445 69.8443 360.941 71.1883 359.117 72.2122C357.325 73.2362 355.229 73.7483 352.829 73.7483C349.245 73.7483 345.885 73.0763 342.749 71.7323C339.645 70.3883 336.909 68.5323 334.541 66.1643C332.173 63.7643 330.317 61.0122 328.973 57.9082C327.661 54.7722 327.005 51.4122 327.005 47.8282C327.005 44.4042 327.629 41.2042 328.877 38.2282C330.125 35.2522 331.869 32.6442 334.109 30.4042C336.381 28.1322 338.989 26.3562 341.933 25.0762C344.909 23.7962 348.093 23.1562 351.485 23.1562C354.237 23.1562 356.733 23.7323 358.973 24.8842C361.245 26.0042 363.261 27.4122 365.021 29.1082L364.349 24.5002ZM352.445 59.9242C354.429 59.9242 356.237 59.4123 357.869 58.3883C359.501 57.3643 360.797 55.9883 361.757 54.2602C362.717 52.5322 363.197 50.6122 363.197 48.5002C363.197 46.3882 362.717 44.4682 361.757 42.7402C360.797 41.0122 359.501 39.6362 357.869 38.6122C356.237 37.5882 354.429 37.0762 352.445 37.0762C350.461 37.0762 348.653 37.5882 347.021 38.6122C345.421 39.6362 344.141 41.0122 343.181 42.7402C342.253 44.4682 341.789 46.3882 341.789 48.5002C341.789 50.6122 342.269 52.5322 343.229 54.2602C344.189 55.9883 345.469 57.3643 347.069 58.3883C348.701 59.4123 350.493 59.9242 352.445 59.9242Z" fill="#111618"/>
<path d="M305.041 72.5V0.5H319.441V72.5H305.041Z" fill="#111618"/>
<path d="M279.166 72.5V0.5H293.566V72.5H279.166Z" fill="#111618"/>
<path d="M255.13 24.5002H269.53V72.5003H255.082L254.41 68.1803C253.226 69.8443 251.722 71.1883 249.898 72.2122C248.106 73.2362 246.01 73.7483 243.61 73.7483C240.026 73.7483 236.666 73.0763 233.53 71.7323C230.426 70.3883 227.69 68.5323 225.322 66.1643C222.954 63.7643 221.098 61.0122 219.754 57.9082C218.442 54.7722 217.786 51.4122 217.786 47.8282C217.786 44.4042 218.41 41.2042 219.658 38.2282C220.906 35.2522 222.65 32.6442 224.89 30.4042C227.162 28.1322 229.77 26.3562 232.714 25.0762C235.69 23.7962 238.874 23.1562 242.266 23.1562C245.018 23.1562 247.514 23.7323 249.754 24.8842C252.026 26.0042 254.042 27.4122 255.802 29.1082L255.13 24.5002ZM243.226 59.9242C245.21 59.9242 247.018 59.4123 248.65 58.3883C250.282 57.3643 251.578 55.9883 252.538 54.2602C253.498 52.5322 253.978 50.6122 253.978 48.5002C253.978 46.3882 253.498 44.4682 252.538 42.7402C251.578 41.0122 250.282 39.6362 248.65 38.6122C247.018 37.5882 245.21 37.0762 243.226 37.0762C241.242 37.0762 239.434 37.5882 237.802 38.6122C236.202 39.6362 234.922 41.0122 233.962 42.7402C233.034 44.4682 232.57 46.3882 232.57 48.5002C232.57 50.6122 233.05 52.5322 234.01 54.2602C234.97 55.9883 236.25 57.3643 237.85 58.3883C239.482 59.4123 241.274 59.9242 243.226 59.9242Z" fill="#111618"/>
<path d="M177.247 72.4998L152.863 5.2998H168.127L186.559 55.9878L204.991 5.2998H220.255L195.871 72.4998H177.247Z" fill="#111618"/>
<path d="M45.4475 72.5003V24.5002H59.8475V27.5242C61.4475 26.1482 63.2715 25.0762 65.3195 24.3082C67.3675 23.5402 69.5275 23.1562 71.7995 23.1562C74.9995 23.1562 77.9435 23.8923 80.6315 25.3642C83.3195 26.8042 85.4955 28.7402 87.1595 31.1722C88.8555 28.7402 91.0315 26.8042 93.6875 25.3642C96.3755 23.8923 99.3035 23.1562 102.472 23.1562C105.928 23.1562 109.064 24.0042 111.88 25.7002C114.696 27.3642 116.936 29.6042 118.6 32.4202C120.296 35.2362 121.144 38.3722 121.144 41.8282V72.5003H106.744V45.8603C106.744 44.3562 106.376 42.9962 105.64 41.7802C104.904 40.5642 103.928 39.5882 102.712 38.8522C101.496 38.1162 100.136 37.7482 98.6315 37.7482C97.1275 37.7482 95.7515 38.1162 94.5035 38.8522C93.2875 39.5882 92.3115 40.5642 91.5755 41.7802C90.8395 42.9962 90.4715 44.3562 90.4715 45.8603V72.5003H76.0715V45.8603C76.0715 44.3562 75.7035 42.9962 74.9675 41.7802C74.2635 40.5642 73.2875 39.5882 72.0395 38.8522C70.8235 38.1162 69.4635 37.7482 67.9595 37.7482C66.4875 37.7482 65.1275 38.1162 63.8795 38.8522C62.6635 39.5882 61.6875 40.5642 60.9515 41.7802C60.2155 42.9962 59.8475 44.3562 59.8475 45.8603V72.5003H45.4475Z" fill="#111618"/>
<path d="M23.7012 30.3558L26.6772 5.2998H41.0772L33.3012 30.3558H23.7012Z" fill="#111618"/>
<path d="M0.200012 72.4998V5.2998H14.6V72.4998H0.200012Z" fill="#111618"/>
</svg>
