<svg width="34" height="35" viewBox="0 0 34 35" fill="none" xmlns="http://www.w3.org/2000/svg">
<g clip-path="url(#clip0_376_1179)">
<path d="M23.375 0.0625H10.625C7.80707 0.0625 5.10456 1.18192 3.11199 3.17449C1.11942 5.16706 0 7.86957 0 10.6875L0 23.4375C0 26.2554 1.11942 28.9579 3.11199 30.9505C5.10456 32.9431 7.80707 34.0625 10.625 34.0625H23.375C26.1929 34.0625 28.8954 32.9431 30.888 30.9505C32.8806 28.9579 34 26.2554 34 23.4375V10.6875C34 7.86957 32.8806 5.16706 30.888 3.17449C28.8954 1.18192 26.1929 0.0625 23.375 0.0625ZM30.8125 23.4375C30.8125 27.5387 27.4762 30.875 23.375 30.875H10.625C6.52375 30.875 3.1875 27.5387 3.1875 23.4375V10.6875C3.1875 6.58625 6.52375 3.25 10.625 3.25H23.375C27.4762 3.25 30.8125 6.58625 30.8125 10.6875V23.4375Z" fill="#111618"/>
<path d="M17 8.5625C14.7457 8.5625 12.5837 9.45803 10.9896 11.0521C9.39553 12.6462 8.5 14.8082 8.5 17.0625C8.5 19.3168 9.39553 21.4788 10.9896 23.0729C12.5837 24.667 14.7457 25.5625 17 25.5625C19.2543 25.5625 21.4163 24.667 23.0104 23.0729C24.6045 21.4788 25.5 19.3168 25.5 17.0625C25.5 14.8082 24.6045 12.6462 23.0104 11.0521C21.4163 9.45803 19.2543 8.5625 17 8.5625ZM17 22.375C15.5916 22.3733 14.2413 21.8131 13.2454 20.8171C12.2494 19.8212 11.6892 18.4709 11.6875 17.0625C11.6875 14.1321 14.0717 11.75 17 11.75C19.9283 11.75 22.3125 14.1321 22.3125 17.0625C22.3125 19.9908 19.9283 22.375 17 22.375Z" fill="#111618"/>
<path d="M26.1375 9.05822C26.763 9.05822 27.2701 8.55113 27.2701 7.92559C27.2701 7.30006 26.763 6.79297 26.1375 6.79297C25.512 6.79297 25.0049 7.30006 25.0049 7.92559C25.0049 8.55113 25.512 9.05822 26.1375 9.05822Z" fill="#111618"/>
</g>
<defs>
<clipPath id="clip0_376_1179">
<rect width="34" height="34" fill="white" transform="translate(0 0.0625)"/>
</clipPath>
</defs>
</svg>
