<svg width="28" height="29" viewBox="0 0 28 29" fill="none" xmlns="http://www.w3.org/2000/svg">
<g clip-path="url(#clip0_376_1169)">
<path d="M0 3.81503C0 2.87225 0.315324 2.09447 0.945946 1.48169C1.57657 0.868888 2.39641 0.5625 3.40541 0.5625C4.39641 0.5625 5.19819 0.864165 5.81081 1.46755C6.44143 2.08977 6.75676 2.90053 6.75676 3.89987C6.75676 4.80492 6.45046 5.55911 5.83784 6.1625C5.20722 6.78472 4.37838 7.09583 3.35135 7.09583H3.32432C2.33332 7.09583 1.53154 6.78472 0.918919 6.1625C0.306297 5.54028 0 4.75778 0 3.81503ZM0.351351 28.5625V9.66957H6.35135V28.5625H0.351351ZM9.67568 28.5625H15.6757V18.013C15.6757 17.3531 15.7478 16.844 15.8919 16.4857C16.1441 15.8446 16.527 15.3025 17.0405 14.8595C17.5541 14.4164 18.1982 14.1948 18.973 14.1948C20.991 14.1948 22 15.6184 22 18.4655V28.5625H28V17.7302C28 14.9396 27.3694 12.8231 26.1081 11.3807C24.8468 9.93826 23.1802 9.21705 21.1081 9.21705C18.7838 9.21705 16.973 10.2635 15.6757 12.3564V12.413H15.6486L15.6757 12.3564V9.66957H9.67568C9.7117 10.2729 9.72973 12.149 9.72973 15.2979C9.72973 18.4467 9.7117 22.8682 9.67568 28.5625Z" fill="#111618"/>
</g>
<defs>
<clipPath id="clip0_376_1169">
<rect width="28" height="28" fill="white" transform="translate(0 0.5625)"/>
</clipPath>
</defs>
</svg>
