<svg width="17" height="25" viewBox="0 0 17 25" fill="none" xmlns="http://www.w3.org/2000/svg">
<path d="M0.818962 0.454102C0.818962 0.337676 0.72458 0.243294 0.608154 0.243294C0.491728 0.243294 0.397347 0.337676 0.397347 0.454102H0.818962ZM0.608154 23.2213H0.397347V23.4321H0.608154V23.2213ZM13.8188 23.2213C13.8188 23.8423 14.3221 24.3456 14.9431 24.3456C15.564 24.3456 16.0674 23.8423 16.0674 23.2213C16.0674 22.6004 15.564 22.097 14.9431 22.097C14.3221 22.097 13.8188 22.6004 13.8188 23.2213ZM0.397347 0.454102V23.2213H0.818962V0.454102H0.397347ZM0.608154 23.4321H14.9431V23.0105H0.608154V23.4321Z" fill="#FFF5EC"/>
</svg>
