<svg width="373" height="115" viewBox="0 0 373 115" fill="none" xmlns="http://www.w3.org/2000/svg">
<path d="M61.3068 109.936L61.2971 111.468H52.7427V97.5723H61.2971V99.1044H54.6221V103.72H60.028V105.194H54.6221V109.936H61.3068Z" fill="#484A49"/>
<path d="M65.2064 97.1844V111.468H63.482V97.1844H65.2064Z" fill="#484A49"/>
<path d="M74.5713 105.485C74.5713 105.084 74.5131 104.719 74.3969 104.389C74.2871 104.053 74.1224 103.765 73.9028 103.526C73.6897 103.28 73.4281 103.093 73.1181 102.964C72.8081 102.828 72.4561 102.76 72.0621 102.76C71.2354 102.76 70.5799 103.002 70.0955 103.487C69.6175 103.966 69.3204 104.631 69.2042 105.485H74.5713ZM75.9663 110.091C75.7532 110.349 75.4981 110.576 75.201 110.769C74.9039 110.957 74.5842 111.112 74.2419 111.235C73.906 111.358 73.5573 111.448 73.1956 111.506C72.8339 111.571 72.4755 111.603 72.1202 111.603C71.4421 111.603 70.8156 111.49 70.2408 111.264C69.6724 111.031 69.1784 110.695 68.7586 110.256C68.3452 109.809 68.0223 109.26 67.7898 108.607C67.5573 107.954 67.441 107.204 67.441 106.357C67.441 105.672 67.5443 105.032 67.751 104.438C67.9641 103.843 68.2677 103.329 68.6617 102.896C69.0556 102.456 69.5368 102.114 70.1052 101.868C70.6735 101.616 71.3129 101.49 72.0234 101.49C72.6111 101.49 73.1536 101.59 73.6509 101.79C74.1547 101.984 74.5874 102.269 74.9491 102.644C75.3172 103.012 75.6047 103.471 75.8113 104.021C76.018 104.564 76.1213 105.184 76.1213 105.882C76.1213 106.154 76.0923 106.335 76.0341 106.425C75.976 106.516 75.8662 106.561 75.7048 106.561H69.1461C69.1655 107.182 69.2494 107.721 69.398 108.18C69.553 108.639 69.7661 109.024 70.0374 109.334C70.3086 109.638 70.6315 109.868 71.0061 110.023C71.3807 110.171 71.8005 110.246 72.2656 110.246C72.6983 110.246 73.0696 110.197 73.3797 110.1C73.6961 109.997 73.9674 109.887 74.1934 109.771C74.4195 109.654 74.6068 109.548 74.7553 109.451C74.9103 109.347 75.0428 109.296 75.1525 109.296C75.2946 109.296 75.4044 109.35 75.4819 109.46L75.9663 110.091Z" fill="#484A49"/>
<path d="M86.4404 101.645L82.4393 111.468H80.8893L76.8882 101.645H78.2929C78.435 101.645 78.5513 101.68 78.6417 101.752C78.7321 101.823 78.7935 101.907 78.8258 102.004L81.3155 108.326C81.393 108.565 81.4609 108.798 81.519 109.024C81.5771 109.25 81.632 109.477 81.6837 109.703C81.7354 109.477 81.7902 109.25 81.8484 109.024C81.9065 108.798 81.9775 108.565 82.0615 108.326L84.5804 102.004C84.6191 101.9 84.6837 101.816 84.7741 101.752C84.8645 101.68 84.9711 101.645 85.0938 101.645H86.4404Z" fill="#484A49"/>
<path d="M93.1325 107.046C92.3381 107.072 91.6599 107.136 91.098 107.24C90.5426 107.337 90.0873 107.466 89.732 107.628C89.3833 107.789 89.1281 107.98 88.9667 108.2C88.8117 108.42 88.7342 108.665 88.7342 108.937C88.7342 109.195 88.7762 109.418 88.8601 109.606C88.9441 109.793 89.0571 109.948 89.1992 110.071C89.3477 110.188 89.5189 110.275 89.7127 110.333C89.9129 110.385 90.126 110.411 90.352 110.411C90.6556 110.411 90.9333 110.382 91.1852 110.323C91.4371 110.259 91.6728 110.168 91.8924 110.052C92.1185 109.936 92.3316 109.797 92.5318 109.635C92.7385 109.473 92.9387 109.289 93.1325 109.082V107.046ZM87.5619 103.032C88.1045 102.508 88.689 102.117 89.3154 101.858C89.9419 101.6 90.6362 101.47 91.3983 101.47C91.9473 101.47 92.4349 101.561 92.8612 101.742C93.2875 101.923 93.6459 102.175 93.9366 102.498C94.2272 102.821 94.4468 103.213 94.5953 103.671C94.7439 104.13 94.8182 104.635 94.8182 105.184V111.468H94.0528C93.8849 111.468 93.7557 111.442 93.6653 111.39C93.5749 111.332 93.5038 111.222 93.4522 111.06L93.2584 110.129C93.0001 110.369 92.7482 110.582 92.5028 110.769C92.2573 110.95 91.999 111.106 91.7277 111.235C91.4565 111.358 91.1658 111.451 90.8558 111.516C90.5523 111.587 90.2132 111.623 89.8386 111.623C89.4575 111.623 89.0991 111.571 88.7632 111.468C88.4274 111.358 88.1335 111.196 87.8816 110.983C87.6362 110.769 87.4392 110.501 87.2907 110.178C87.1486 109.848 87.0776 109.46 87.0776 109.014C87.0776 108.626 87.1841 108.255 87.3972 107.899C87.6104 107.537 87.9559 107.217 88.4338 106.939C88.9118 106.661 89.535 106.435 90.3036 106.26C91.0722 106.079 92.0151 105.976 93.1325 105.95V105.184C93.1325 104.421 92.9678 103.846 92.6384 103.458C92.309 103.064 91.8278 102.867 91.1949 102.867C90.7686 102.867 90.4102 102.922 90.1195 103.032C89.8354 103.135 89.5867 103.255 89.3736 103.39C89.1669 103.52 88.9861 103.639 88.8311 103.749C88.6825 103.852 88.534 103.904 88.3854 103.904C88.2691 103.904 88.1691 103.875 88.0851 103.817C88.0011 103.752 87.9301 103.675 87.872 103.584L87.5619 103.032Z" fill="#484A49"/>
<path d="M106.419 111.468H104.695V103.09H99.6376V108.985C99.6376 109.399 99.7377 109.706 99.9379 109.906C100.138 110.107 100.396 110.207 100.713 110.207C100.894 110.207 101.049 110.184 101.178 110.139C101.314 110.087 101.43 110.032 101.527 109.974C101.624 109.916 101.704 109.864 101.769 109.819C101.84 109.767 101.901 109.742 101.953 109.742C102.043 109.742 102.124 109.797 102.195 109.906L102.699 110.731C102.402 111.009 102.043 111.228 101.624 111.39C101.204 111.545 100.771 111.623 100.325 111.623C99.5504 111.623 98.953 111.406 98.5332 110.973C98.1198 110.54 97.9131 109.916 97.9131 109.102V103.09H96.7312C96.6279 103.09 96.5407 103.061 96.4696 103.002C96.3986 102.938 96.3631 102.841 96.3631 102.712V102.023L97.9712 101.81L98.3684 98.7844C98.3878 98.6874 98.4298 98.6098 98.4944 98.5517C98.5654 98.487 98.6559 98.4547 98.7656 98.4547H99.6376V101.839H106.419V111.468ZM106.845 98.4935C106.845 98.6616 106.81 98.8199 106.739 98.9686C106.674 99.1108 106.584 99.2369 106.467 99.3468C106.358 99.4567 106.229 99.5439 106.08 99.6086C105.931 99.6732 105.773 99.7056 105.605 99.7056C105.437 99.7056 105.279 99.6732 105.131 99.6086C104.988 99.5439 104.863 99.4567 104.753 99.3468C104.643 99.2369 104.556 99.1108 104.491 98.9686C104.427 98.8199 104.394 98.6616 104.394 98.4935C104.394 98.3254 104.427 98.167 104.491 98.0183C104.556 97.8632 104.643 97.7307 104.753 97.6208C104.863 97.5044 104.988 97.4139 105.131 97.3493C105.279 97.2846 105.437 97.2523 105.605 97.2523C105.773 97.2523 105.931 97.2846 106.08 97.3493C106.229 97.4139 106.358 97.5044 106.467 97.6208C106.584 97.7307 106.674 97.8632 106.739 98.0183C106.81 98.167 106.845 98.3254 106.845 98.4935Z" fill="#484A49"/>
<path d="M110.88 103.07C111.093 102.831 111.319 102.615 111.558 102.421C111.797 102.227 112.049 102.062 112.313 101.926C112.585 101.784 112.869 101.677 113.166 101.606C113.469 101.529 113.796 101.49 114.144 101.49C114.68 101.49 115.152 101.58 115.559 101.761C115.972 101.936 116.314 102.188 116.586 102.518C116.863 102.841 117.073 103.232 117.215 103.691C117.358 104.15 117.429 104.657 117.429 105.213V111.468H115.694V105.213C115.694 104.47 115.523 103.895 115.181 103.487C114.845 103.074 114.332 102.867 113.641 102.867C113.13 102.867 112.652 102.989 112.207 103.235C111.768 103.481 111.361 103.814 110.986 104.234V111.468H109.252V101.645H110.289C110.534 101.645 110.686 101.764 110.744 102.004L110.88 103.07Z" fill="#484A49"/>
<path d="M123.476 106.668C123.825 106.668 124.132 106.619 124.396 106.522C124.661 106.425 124.884 106.29 125.065 106.115C125.246 105.941 125.381 105.734 125.472 105.494C125.562 105.249 125.607 104.981 125.607 104.69C125.607 104.088 125.423 103.61 125.055 103.255C124.694 102.899 124.167 102.721 123.476 102.721C122.779 102.721 122.246 102.899 121.878 103.255C121.516 103.61 121.335 104.088 121.335 104.69C121.335 104.981 121.38 105.249 121.471 105.494C121.568 105.734 121.706 105.941 121.887 106.115C122.068 106.29 122.291 106.425 122.556 106.522C122.821 106.619 123.127 106.668 123.476 106.668ZM126.586 112.001C126.586 111.762 126.518 111.568 126.382 111.419C126.247 111.27 126.063 111.154 125.83 111.07C125.604 110.986 125.339 110.928 125.036 110.896C124.732 110.857 124.409 110.828 124.067 110.808C123.731 110.789 123.389 110.769 123.04 110.75C122.691 110.731 122.356 110.698 122.033 110.653C121.671 110.821 121.374 111.034 121.141 111.293C120.915 111.545 120.802 111.843 120.802 112.185C120.802 112.405 120.857 112.609 120.967 112.796C121.083 112.99 121.258 113.155 121.49 113.291C121.723 113.433 122.013 113.543 122.362 113.62C122.717 113.704 123.134 113.746 123.612 113.746C124.077 113.746 124.493 113.704 124.861 113.62C125.23 113.536 125.54 113.417 125.791 113.261C126.05 113.106 126.247 112.922 126.382 112.709C126.518 112.495 126.586 112.259 126.586 112.001ZM128.339 102.033V102.673C128.339 102.886 128.204 103.022 127.932 103.08L126.818 103.225C127.038 103.652 127.148 104.124 127.148 104.641C127.148 105.12 127.054 105.556 126.867 105.95C126.686 106.338 126.434 106.671 126.111 106.949C125.788 107.227 125.401 107.44 124.949 107.589C124.497 107.738 124.006 107.812 123.476 107.812C123.018 107.812 122.585 107.757 122.178 107.647C121.971 107.776 121.813 107.915 121.703 108.064C121.593 108.206 121.538 108.352 121.538 108.5C121.538 108.733 121.632 108.911 121.819 109.034C122.013 109.15 122.265 109.234 122.575 109.286C122.885 109.338 123.237 109.37 123.631 109.383C124.031 109.396 124.438 109.418 124.852 109.451C125.272 109.477 125.678 109.525 126.072 109.596C126.473 109.667 126.828 109.784 127.138 109.945C127.448 110.107 127.697 110.33 127.884 110.614C128.078 110.899 128.175 111.267 128.175 111.72C128.175 112.14 128.068 112.547 127.855 112.941C127.648 113.336 127.348 113.685 126.954 113.989C126.56 114.299 126.076 114.545 125.501 114.726C124.932 114.913 124.29 115.007 123.573 115.007C122.856 115.007 122.23 114.936 121.694 114.794C121.157 114.651 120.712 114.461 120.357 114.221C120.001 113.982 119.733 113.704 119.552 113.388C119.378 113.077 119.291 112.751 119.291 112.408C119.291 111.923 119.443 111.513 119.746 111.177C120.05 110.841 120.466 110.572 120.996 110.372C120.705 110.243 120.473 110.071 120.298 109.858C120.131 109.638 120.047 109.344 120.047 108.976C120.047 108.833 120.072 108.688 120.124 108.539C120.176 108.384 120.253 108.232 120.357 108.083C120.466 107.928 120.599 107.783 120.754 107.647C120.909 107.511 121.09 107.392 121.296 107.288C120.812 107.017 120.434 106.658 120.163 106.212C119.892 105.759 119.756 105.236 119.756 104.641C119.756 104.163 119.846 103.73 120.027 103.342C120.215 102.947 120.473 102.615 120.802 102.343C121.132 102.065 121.522 101.852 121.974 101.703C122.433 101.554 122.934 101.48 123.476 101.48C123.902 101.48 124.3 101.529 124.668 101.625C125.036 101.716 125.372 101.852 125.675 102.033H128.339Z" fill="#484A49"/>
<path d="M142.588 99.7443C142.53 99.8413 142.465 99.9157 142.394 99.9674C142.33 100.013 142.249 100.035 142.152 100.035C142.042 100.035 141.913 99.9803 141.765 99.8704C141.616 99.7605 141.429 99.6409 141.203 99.5116C140.983 99.3759 140.715 99.2531 140.399 99.1432C140.089 99.0333 139.711 98.9783 139.265 98.9783C138.845 98.9783 138.474 99.0365 138.151 99.1529C137.835 99.2627 137.567 99.4147 137.347 99.6086C137.134 99.8025 136.972 100.032 136.863 100.297C136.753 100.556 136.698 100.837 136.698 101.141C136.698 101.529 136.792 101.852 136.979 102.11C137.173 102.362 137.424 102.579 137.734 102.76C138.051 102.941 138.406 103.099 138.8 103.235C139.201 103.364 139.607 103.5 140.021 103.642C140.441 103.785 140.848 103.946 141.242 104.127C141.642 104.302 141.997 104.525 142.307 104.796C142.624 105.068 142.876 105.401 143.063 105.795C143.257 106.189 143.353 106.674 143.353 107.25C143.353 107.857 143.25 108.429 143.043 108.966C142.837 109.496 142.533 109.958 142.133 110.352C141.739 110.747 141.251 111.057 140.67 111.283C140.095 111.51 139.44 111.623 138.703 111.623C137.799 111.623 136.979 111.461 136.243 111.138C135.506 110.808 134.877 110.365 134.353 109.809L134.896 108.917C134.948 108.846 135.009 108.788 135.08 108.743C135.158 108.691 135.241 108.665 135.332 108.665C135.416 108.665 135.51 108.701 135.613 108.772C135.723 108.837 135.845 108.921 135.981 109.024C136.117 109.127 136.272 109.241 136.446 109.363C136.62 109.486 136.817 109.599 137.037 109.703C137.263 109.806 137.518 109.893 137.802 109.965C138.086 110.029 138.406 110.062 138.761 110.062C139.207 110.062 139.604 110 139.953 109.877C140.302 109.755 140.596 109.583 140.835 109.363C141.08 109.137 141.267 108.869 141.396 108.559C141.526 108.248 141.59 107.902 141.59 107.521C141.59 107.101 141.493 106.758 141.3 106.493C141.112 106.222 140.864 105.995 140.554 105.814C140.244 105.633 139.888 105.482 139.488 105.359C139.088 105.229 138.681 105.1 138.267 104.971C137.854 104.835 137.447 104.68 137.047 104.505C136.646 104.331 136.291 104.105 135.981 103.827C135.671 103.549 135.419 103.203 135.225 102.789C135.038 102.369 134.944 101.852 134.944 101.238C134.944 100.746 135.038 100.271 135.225 99.8122C135.419 99.3532 135.697 98.946 136.058 98.5904C136.427 98.2349 136.876 97.9505 137.405 97.7371C137.941 97.5238 138.555 97.4172 139.246 97.4172C140.021 97.4172 140.725 97.54 141.358 97.7856C141.997 98.0313 142.559 98.3868 143.043 98.8523L142.588 99.7443Z" fill="#484A49"/>
<path d="M147.164 97.1844V105.591H147.61C147.739 105.591 147.846 105.575 147.93 105.543C148.02 105.504 148.114 105.43 148.211 105.32L151.311 101.994C151.401 101.884 151.495 101.8 151.592 101.742C151.695 101.677 151.831 101.645 151.999 101.645H153.558L149.945 105.494C149.77 105.714 149.583 105.886 149.383 106.008C149.499 106.086 149.602 106.176 149.693 106.28C149.79 106.377 149.88 106.49 149.964 106.619L153.8 111.468H152.26C152.112 111.468 151.982 111.445 151.873 111.4C151.769 111.348 151.679 111.257 151.601 111.128L148.375 107.104C148.278 106.968 148.181 106.881 148.085 106.842C147.994 106.797 147.852 106.774 147.658 106.774H147.164V111.468H145.43V97.1844H147.164Z" fill="#484A49"/>
<path d="M157.091 101.645V111.468H155.366V101.645H157.091ZM157.459 98.5614C157.459 98.7294 157.423 98.8878 157.352 99.0365C157.288 99.1787 157.197 99.308 157.081 99.4244C156.971 99.5342 156.839 99.6215 156.684 99.6862C156.535 99.7508 156.377 99.7831 156.209 99.7831C156.041 99.7831 155.883 99.7508 155.734 99.6862C155.592 99.6215 155.466 99.5342 155.357 99.4244C155.247 99.308 155.16 99.1787 155.095 99.0365C155.03 98.8878 154.998 98.7294 154.998 98.5614C154.998 98.3933 155.03 98.2349 155.095 98.0862C155.16 97.9311 155.247 97.7986 155.357 97.6887C155.466 97.5723 155.592 97.4818 155.734 97.4172C155.883 97.3525 156.041 97.3202 156.209 97.3202C156.377 97.3202 156.535 97.3525 156.684 97.4172C156.839 97.4818 156.971 97.5723 157.081 97.6887C157.197 97.7986 157.288 97.9311 157.352 98.0862C157.423 98.2349 157.459 98.3933 157.459 98.5614Z" fill="#484A49"/>
<path d="M161.707 97.1844V111.468H159.982V97.1844H161.707Z" fill="#484A49"/>
<path d="M166.286 97.1844V111.468H164.561V97.1844H166.286Z" fill="#484A49"/>
<path d="M174.798 103.264C174.72 103.406 174.601 103.478 174.44 103.478C174.343 103.478 174.233 103.442 174.11 103.371C173.987 103.3 173.836 103.222 173.655 103.138C173.48 103.048 173.271 102.967 173.025 102.896C172.78 102.818 172.489 102.779 172.153 102.779C171.863 102.779 171.601 102.818 171.368 102.896C171.136 102.967 170.936 103.067 170.768 103.196C170.606 103.326 170.48 103.478 170.39 103.652C170.306 103.82 170.264 104.004 170.264 104.205C170.264 104.457 170.335 104.667 170.477 104.835C170.626 105.003 170.82 105.149 171.058 105.271C171.297 105.394 171.569 105.504 171.872 105.601C172.176 105.692 172.486 105.792 172.802 105.902C173.125 106.005 173.438 106.122 173.742 106.251C174.046 106.38 174.317 106.542 174.556 106.736C174.795 106.93 174.985 107.169 175.127 107.453C175.276 107.731 175.35 108.067 175.35 108.462C175.35 108.914 175.269 109.334 175.108 109.722C174.947 110.104 174.708 110.437 174.391 110.721C174.075 110.999 173.687 111.219 173.229 111.38C172.77 111.542 172.24 111.623 171.64 111.623C170.955 111.623 170.335 111.513 169.78 111.293C169.224 111.067 168.753 110.779 168.365 110.43L168.772 109.771C168.824 109.687 168.885 109.622 168.956 109.577C169.027 109.531 169.118 109.509 169.227 109.509C169.344 109.509 169.466 109.554 169.596 109.645C169.725 109.735 169.88 109.835 170.061 109.945C170.248 110.055 170.474 110.155 170.739 110.246C171.004 110.336 171.333 110.382 171.727 110.382C172.063 110.382 172.357 110.34 172.609 110.256C172.86 110.165 173.07 110.045 173.238 109.897C173.406 109.748 173.529 109.577 173.606 109.383C173.69 109.189 173.732 108.982 173.732 108.762C173.732 108.491 173.658 108.268 173.51 108.093C173.367 107.912 173.177 107.76 172.938 107.637C172.699 107.508 172.424 107.398 172.114 107.308C171.811 107.211 171.498 107.111 171.175 107.007C170.858 106.904 170.545 106.787 170.235 106.658C169.931 106.522 169.66 106.354 169.421 106.154C169.182 105.953 168.988 105.708 168.84 105.417C168.698 105.12 168.627 104.761 168.627 104.341C168.627 103.966 168.704 103.607 168.859 103.264C169.014 102.915 169.24 102.611 169.537 102.353C169.835 102.088 170.199 101.878 170.632 101.722C171.065 101.567 171.559 101.49 172.114 101.49C172.76 101.49 173.338 101.593 173.849 101.8C174.365 102 174.811 102.278 175.185 102.634L174.798 103.264Z" fill="#484A49"/>
<path d="M177.358 113.814C177.306 113.769 177.271 113.727 177.251 113.688C177.232 113.649 177.222 113.601 177.222 113.543C177.222 113.497 177.235 113.452 177.261 113.407C177.293 113.362 177.329 113.32 177.368 113.281C177.432 113.21 177.513 113.116 177.61 113C177.713 112.883 177.816 112.744 177.92 112.583C178.023 112.428 178.117 112.253 178.201 112.059C178.291 111.872 178.356 111.671 178.394 111.458C178.375 111.464 178.352 111.468 178.327 111.468C178.307 111.468 178.288 111.468 178.269 111.468C177.933 111.468 177.658 111.358 177.445 111.138C177.238 110.912 177.135 110.624 177.135 110.275C177.135 109.971 177.238 109.712 177.445 109.499C177.658 109.286 177.939 109.179 178.288 109.179C178.482 109.179 178.653 109.215 178.801 109.286C178.95 109.357 179.073 109.457 179.169 109.586C179.273 109.709 179.35 109.855 179.402 110.023C179.454 110.184 179.479 110.362 179.479 110.556C179.479 110.847 179.438 111.151 179.354 111.468C179.276 111.778 179.157 112.085 178.995 112.389C178.84 112.699 178.65 113 178.424 113.291C178.197 113.581 177.939 113.85 177.648 114.095L177.358 113.814Z" fill="#484A49"/>
<path d="M192.092 109.974C192.628 109.974 193.089 109.913 193.477 109.79C193.864 109.667 194.181 109.496 194.426 109.276C194.678 109.05 194.862 108.785 194.979 108.481C195.095 108.171 195.153 107.831 195.153 107.463C195.153 106.745 194.898 106.18 194.388 105.766C193.877 105.346 193.112 105.136 192.092 105.136H189.088V109.974H192.092ZM189.088 99.0559V103.798H191.568C192.098 103.798 192.557 103.739 192.944 103.623C193.338 103.507 193.661 103.345 193.913 103.138C194.171 102.931 194.362 102.682 194.484 102.392C194.607 102.094 194.669 101.771 194.669 101.422C194.669 100.601 194.423 100.003 193.932 99.628C193.441 99.2466 192.679 99.0559 191.646 99.0559H189.088ZM191.646 97.5723C192.498 97.5723 193.231 97.6563 193.845 97.8244C194.465 97.9925 194.972 98.2317 195.366 98.542C195.767 98.8523 196.06 99.2337 196.248 99.6862C196.435 100.132 196.529 100.636 196.529 101.199C196.529 101.541 196.474 101.871 196.364 102.188C196.261 102.498 196.102 102.789 195.889 103.061C195.676 103.332 195.405 103.578 195.075 103.798C194.753 104.011 194.371 104.185 193.932 104.321C194.953 104.515 195.718 104.88 196.228 105.417C196.745 105.947 197.003 106.645 197.003 107.511C197.003 108.1 196.894 108.636 196.674 109.121C196.461 109.606 196.144 110.023 195.725 110.372C195.311 110.721 194.801 110.992 194.194 111.186C193.587 111.374 192.896 111.468 192.121 111.468H187.219V97.5723H191.646Z" fill="#484A49"/>
<path d="M200.767 103.613C201.077 102.941 201.458 102.417 201.91 102.042C202.362 101.661 202.914 101.47 203.567 101.47C203.773 101.47 203.97 101.493 204.158 101.538C204.351 101.583 204.523 101.655 204.671 101.752L204.545 103.041C204.506 103.203 204.41 103.284 204.255 103.284C204.164 103.284 204.032 103.264 203.857 103.225C203.683 103.187 203.486 103.167 203.266 103.167C202.956 103.167 202.679 103.213 202.433 103.303C202.194 103.394 201.978 103.529 201.784 103.71C201.597 103.885 201.426 104.105 201.271 104.37C201.122 104.628 200.986 104.926 200.864 105.262V111.468H199.13V101.645H200.118C200.305 101.645 200.434 101.68 200.505 101.752C200.576 101.823 200.625 101.945 200.651 102.12L200.767 103.613Z" fill="#484A49"/>
<path d="M208.009 101.645V111.468H206.284V101.645H208.009ZM208.377 98.5614C208.377 98.7294 208.341 98.8878 208.27 99.0365C208.206 99.1787 208.115 99.308 207.999 99.4244C207.889 99.5342 207.757 99.6215 207.602 99.6862C207.453 99.7508 207.295 99.7831 207.127 99.7831C206.959 99.7831 206.801 99.7508 206.652 99.6862C206.51 99.6215 206.384 99.5342 206.275 99.4244C206.165 99.308 206.078 99.1787 206.013 99.0365C205.948 98.8878 205.916 98.7294 205.916 98.5614C205.916 98.3933 205.948 98.2349 206.013 98.0862C206.078 97.9311 206.165 97.7986 206.275 97.6887C206.384 97.5723 206.51 97.4818 206.652 97.4172C206.801 97.3525 206.959 97.3202 207.127 97.3202C207.295 97.3202 207.453 97.3525 207.602 97.4172C207.757 97.4818 207.889 97.5723 207.999 97.6887C208.115 97.7986 208.206 97.9311 208.27 98.0862C208.341 98.2349 208.377 98.3933 208.377 98.5614Z" fill="#484A49"/>
<path d="M217.236 103.982C216.913 103.549 216.564 103.248 216.19 103.08C215.815 102.905 215.395 102.818 214.93 102.818C214.02 102.818 213.319 103.145 212.828 103.798C212.337 104.45 212.092 105.381 212.092 106.59C212.092 107.23 212.147 107.78 212.257 108.239C212.366 108.691 212.528 109.066 212.741 109.363C212.954 109.654 213.216 109.868 213.526 110.003C213.836 110.139 214.188 110.207 214.582 110.207C215.15 110.207 215.644 110.078 216.064 109.819C216.49 109.561 216.881 109.195 217.236 108.723V103.982ZM218.961 97.1844V111.468H217.934C217.688 111.468 217.533 111.348 217.469 111.109L217.314 109.916C216.894 110.42 216.416 110.828 215.88 111.138C215.344 111.448 214.724 111.603 214.02 111.603C213.458 111.603 212.948 111.497 212.489 111.283C212.031 111.064 211.64 110.744 211.317 110.323C210.994 109.903 210.745 109.38 210.571 108.753C210.396 108.125 210.309 107.405 210.309 106.59C210.309 105.866 210.406 105.194 210.6 104.573C210.794 103.946 211.071 103.403 211.433 102.944C211.795 102.485 212.237 102.127 212.76 101.868C213.29 101.603 213.884 101.47 214.543 101.47C215.144 101.47 215.657 101.574 216.083 101.781C216.516 101.981 216.9 102.262 217.236 102.624V97.1844H218.961Z" fill="#484A49"/>
<path d="M225.104 106.668C225.453 106.668 225.76 106.619 226.024 106.522C226.289 106.425 226.512 106.29 226.693 106.115C226.874 105.941 227.009 105.734 227.1 105.494C227.19 105.249 227.235 104.981 227.235 104.69C227.235 104.088 227.051 103.61 226.683 103.255C226.321 102.899 225.795 102.721 225.104 102.721C224.407 102.721 223.874 102.899 223.506 103.255C223.144 103.61 222.963 104.088 222.963 104.69C222.963 104.981 223.008 105.249 223.099 105.494C223.196 105.734 223.334 105.941 223.515 106.115C223.696 106.29 223.919 106.425 224.184 106.522C224.449 106.619 224.755 106.668 225.104 106.668ZM228.214 112.001C228.214 111.762 228.146 111.568 228.01 111.419C227.875 111.27 227.691 111.154 227.458 111.07C227.232 110.986 226.967 110.928 226.664 110.896C226.36 110.857 226.037 110.828 225.695 110.808C225.359 110.789 225.017 110.769 224.668 110.75C224.319 110.731 223.983 110.698 223.661 110.653C223.299 110.821 223.002 111.034 222.769 111.293C222.543 111.545 222.43 111.843 222.43 112.185C222.43 112.405 222.485 112.609 222.595 112.796C222.711 112.99 222.886 113.155 223.118 113.291C223.351 113.433 223.641 113.543 223.99 113.62C224.345 113.704 224.762 113.746 225.24 113.746C225.705 113.746 226.121 113.704 226.489 113.62C226.858 113.536 227.168 113.417 227.419 113.261C227.678 113.106 227.875 112.922 228.01 112.709C228.146 112.495 228.214 112.259 228.214 112.001ZM229.967 102.033V102.673C229.967 102.886 229.832 103.022 229.56 103.08L228.446 103.225C228.666 103.652 228.776 104.124 228.776 104.641C228.776 105.12 228.682 105.556 228.495 105.95C228.314 106.338 228.062 106.671 227.739 106.949C227.416 107.227 227.029 107.44 226.577 107.589C226.124 107.738 225.634 107.812 225.104 107.812C224.645 107.812 224.213 107.757 223.806 107.647C223.599 107.776 223.441 107.915 223.331 108.064C223.221 108.206 223.166 108.352 223.166 108.5C223.166 108.733 223.26 108.911 223.447 109.034C223.641 109.15 223.893 109.234 224.203 109.286C224.513 109.338 224.865 109.37 225.259 109.383C225.659 109.396 226.066 109.418 226.48 109.451C226.9 109.477 227.306 109.525 227.7 109.596C228.101 109.667 228.456 109.784 228.766 109.945C229.076 110.107 229.325 110.33 229.512 110.614C229.706 110.899 229.803 111.267 229.803 111.72C229.803 112.14 229.696 112.547 229.483 112.941C229.276 113.336 228.976 113.685 228.582 113.989C228.188 114.299 227.704 114.545 227.129 114.726C226.56 114.913 225.918 115.007 225.201 115.007C224.484 115.007 223.858 114.936 223.321 114.794C222.785 114.651 222.34 114.461 221.985 114.221C221.629 113.982 221.361 113.704 221.18 113.388C221.006 113.077 220.919 112.751 220.919 112.408C220.919 111.923 221.071 111.513 221.374 111.177C221.678 110.841 222.094 110.572 222.624 110.372C222.333 110.243 222.101 110.071 221.926 109.858C221.758 109.638 221.675 109.344 221.675 108.976C221.675 108.833 221.7 108.688 221.752 108.539C221.804 108.384 221.881 108.232 221.985 108.083C222.094 107.928 222.227 107.783 222.382 107.647C222.537 107.511 222.718 107.392 222.924 107.288C222.44 107.017 222.062 106.658 221.791 106.212C221.52 105.759 221.384 105.236 221.384 104.641C221.384 104.163 221.474 103.73 221.655 103.342C221.842 102.947 222.101 102.615 222.43 102.343C222.76 102.065 223.15 101.852 223.602 101.703C224.061 101.554 224.562 101.48 225.104 101.48C225.53 101.48 225.928 101.529 226.296 101.625C226.664 101.716 227 101.852 227.303 102.033H229.967Z" fill="#484A49"/>
<path d="M233.572 101.645V111.468H231.847V101.645H233.572ZM233.94 98.5614C233.94 98.7294 233.904 98.8878 233.833 99.0365C233.769 99.1787 233.678 99.308 233.562 99.4244C233.452 99.5342 233.32 99.6215 233.165 99.6862C233.016 99.7508 232.858 99.7831 232.69 99.7831C232.522 99.7831 232.364 99.7508 232.216 99.6862C232.073 99.6215 231.948 99.5342 231.838 99.4244C231.728 99.308 231.641 99.1787 231.576 99.0365C231.512 98.8878 231.479 98.7294 231.479 98.5614C231.479 98.3933 231.512 98.2349 231.576 98.0862C231.641 97.9311 231.728 97.7986 231.838 97.6887C231.948 97.5723 232.073 97.4818 232.216 97.4172C232.364 97.3525 232.522 97.3202 232.69 97.3202C232.858 97.3202 233.016 97.3525 233.165 97.4172C233.32 97.4818 233.452 97.5723 233.562 97.6887C233.678 97.7986 233.769 97.9311 233.833 98.0862C233.904 98.2349 233.94 98.3933 233.94 98.5614Z" fill="#484A49"/>
<path d="M238.033 103.07C238.246 102.831 238.472 102.615 238.711 102.421C238.95 102.227 239.202 102.062 239.467 101.926C239.738 101.784 240.022 101.677 240.319 101.606C240.623 101.529 240.949 101.49 241.298 101.49C241.834 101.49 242.305 101.58 242.712 101.761C243.125 101.936 243.468 102.188 243.739 102.518C244.017 102.841 244.227 103.232 244.369 103.691C244.511 104.15 244.582 104.657 244.582 105.213V111.468H242.848V105.213C242.848 104.47 242.677 103.895 242.334 103.487C241.998 103.074 241.485 102.867 240.794 102.867C240.284 102.867 239.806 102.989 239.36 103.235C238.921 103.481 238.514 103.814 238.139 104.234V111.468H236.405V101.645H237.442C237.687 101.645 237.839 101.764 237.897 102.004L238.033 103.07Z" fill="#484A49"/>
<path d="M250.629 106.668C250.978 106.668 251.285 106.619 251.55 106.522C251.814 106.425 252.037 106.29 252.218 106.115C252.399 105.941 252.535 105.734 252.625 105.494C252.715 105.249 252.761 104.981 252.761 104.69C252.761 104.088 252.577 103.61 252.208 103.255C251.847 102.899 251.32 102.721 250.629 102.721C249.932 102.721 249.399 102.899 249.031 103.255C248.669 103.61 248.488 104.088 248.488 104.69C248.488 104.981 248.533 105.249 248.624 105.494C248.721 105.734 248.86 105.941 249.04 106.115C249.221 106.29 249.444 106.425 249.709 106.522C249.974 106.619 250.281 106.668 250.629 106.668ZM253.739 112.001C253.739 111.762 253.671 111.568 253.536 111.419C253.4 111.27 253.216 111.154 252.983 111.07C252.757 110.986 252.493 110.928 252.189 110.896C251.885 110.857 251.563 110.828 251.22 110.808C250.884 110.789 250.542 110.769 250.193 110.75C249.845 110.731 249.509 110.698 249.186 110.653C248.824 110.821 248.527 111.034 248.295 111.293C248.068 111.545 247.955 111.843 247.955 112.185C247.955 112.405 248.01 112.609 248.12 112.796C248.236 112.99 248.411 113.155 248.643 113.291C248.876 113.433 249.166 113.543 249.515 113.62C249.87 113.704 250.287 113.746 250.765 113.746C251.23 113.746 251.647 113.704 252.015 113.62C252.383 113.536 252.693 113.417 252.945 113.261C253.203 113.106 253.4 112.922 253.536 112.709C253.671 112.495 253.739 112.259 253.739 112.001ZM255.493 102.033V102.673C255.493 102.886 255.357 103.022 255.086 103.08L253.972 103.225C254.191 103.652 254.301 104.124 254.301 104.641C254.301 105.12 254.207 105.556 254.02 105.95C253.839 106.338 253.587 106.671 253.264 106.949C252.941 107.227 252.554 107.44 252.102 107.589C251.65 107.738 251.159 107.812 250.629 107.812C250.171 107.812 249.738 107.757 249.331 107.647C249.124 107.776 248.966 107.915 248.856 108.064C248.747 108.206 248.692 108.352 248.692 108.5C248.692 108.733 248.785 108.911 248.973 109.034C249.166 109.15 249.418 109.234 249.728 109.286C250.038 109.338 250.39 109.37 250.784 109.383C251.185 109.396 251.592 109.418 252.005 109.451C252.425 109.477 252.832 109.525 253.226 109.596C253.626 109.667 253.981 109.784 254.291 109.945C254.601 110.107 254.85 110.33 255.037 110.614C255.231 110.899 255.328 111.267 255.328 111.72C255.328 112.14 255.221 112.547 255.008 112.941C254.802 113.336 254.501 113.685 254.107 113.989C253.713 114.299 253.229 114.545 252.654 114.726C252.086 114.913 251.443 115.007 250.726 115.007C250.009 115.007 249.383 114.936 248.847 114.794C248.311 114.651 247.865 114.461 247.51 114.221C247.155 113.982 246.887 113.704 246.706 113.388C246.531 113.077 246.444 112.751 246.444 112.408C246.444 111.923 246.596 111.513 246.899 111.177C247.203 110.841 247.62 110.572 248.149 110.372C247.859 110.243 247.626 110.071 247.452 109.858C247.284 109.638 247.2 109.344 247.2 108.976C247.2 108.833 247.226 108.688 247.277 108.539C247.329 108.384 247.406 108.232 247.51 108.083C247.62 107.928 247.752 107.783 247.907 107.647C248.062 107.511 248.243 107.392 248.45 107.288C247.965 107.017 247.587 106.658 247.316 106.212C247.045 105.759 246.909 105.236 246.909 104.641C246.909 104.163 247 103.73 247.18 103.342C247.368 102.947 247.626 102.615 247.955 102.343C248.285 102.065 248.676 101.852 249.128 101.703C249.586 101.554 250.087 101.48 250.629 101.48C251.056 101.48 251.453 101.529 251.821 101.625C252.189 101.716 252.525 101.852 252.828 102.033H255.493Z" fill="#484A49"/>
<path d="M273.226 97.5723L267.569 111.468H265.883L260.225 97.5723H261.727C261.895 97.5723 262.03 97.6143 262.134 97.6984C262.237 97.7824 262.315 97.8891 262.366 98.0183L266.28 107.822C266.364 108.041 266.445 108.281 266.522 108.539C266.606 108.798 266.681 109.069 266.745 109.354C266.81 109.069 266.878 108.798 266.949 108.539C267.02 108.281 267.097 108.041 267.181 107.822L271.085 98.0183C271.124 97.9085 271.198 97.8083 271.308 97.7178C271.424 97.6208 271.563 97.5723 271.725 97.5723H273.226Z" fill="#484A49"/>
<path d="M276.467 101.645V111.468H274.743V101.645H276.467ZM276.835 98.5614C276.835 98.7294 276.8 98.8878 276.729 99.0365C276.664 99.1787 276.574 99.308 276.457 99.4244C276.348 99.5342 276.215 99.6215 276.06 99.6862C275.912 99.7508 275.753 99.7831 275.586 99.7831C275.418 99.7831 275.259 99.7508 275.111 99.6862C274.969 99.6215 274.843 99.5342 274.733 99.4244C274.623 99.308 274.536 99.1787 274.471 99.0365C274.407 98.8878 274.375 98.7294 274.375 98.5614C274.375 98.3933 274.407 98.2349 274.471 98.0862C274.536 97.9311 274.623 97.7986 274.733 97.6887C274.843 97.5723 274.969 97.4818 275.111 97.4172C275.259 97.3525 275.418 97.3202 275.586 97.3202C275.753 97.3202 275.912 97.3525 276.06 97.4172C276.215 97.4818 276.348 97.5723 276.457 97.6887C276.574 97.7986 276.664 97.9311 276.729 98.0862C276.8 98.2349 276.835 98.3933 276.835 98.5614Z" fill="#484A49"/>
<path d="M285.016 103.264C284.939 103.406 284.819 103.478 284.658 103.478C284.561 103.478 284.451 103.442 284.329 103.371C284.206 103.3 284.054 103.222 283.873 103.138C283.699 103.048 283.489 102.967 283.243 102.896C282.998 102.818 282.707 102.779 282.372 102.779C282.081 102.779 281.819 102.818 281.587 102.896C281.354 102.967 281.154 103.067 280.986 103.196C280.825 103.326 280.699 103.478 280.608 103.652C280.524 103.82 280.482 104.004 280.482 104.205C280.482 104.457 280.553 104.667 280.696 104.835C280.844 105.003 281.038 105.149 281.277 105.271C281.516 105.394 281.787 105.504 282.091 105.601C282.394 105.692 282.704 105.792 283.021 105.902C283.344 106.005 283.657 106.122 283.96 106.251C284.264 106.38 284.535 106.542 284.774 106.736C285.013 106.93 285.204 107.169 285.346 107.453C285.494 107.731 285.569 108.067 285.569 108.462C285.569 108.914 285.488 109.334 285.326 109.722C285.165 110.104 284.926 110.437 284.609 110.721C284.293 110.999 283.905 111.219 283.447 111.38C282.988 111.542 282.459 111.623 281.858 111.623C281.174 111.623 280.553 111.513 279.998 111.293C279.443 111.067 278.971 110.779 278.584 110.43L278.991 109.771C279.042 109.687 279.104 109.622 279.175 109.577C279.246 109.531 279.336 109.509 279.446 109.509C279.562 109.509 279.685 109.554 279.814 109.645C279.943 109.735 280.098 109.835 280.279 109.945C280.466 110.055 280.692 110.155 280.957 110.246C281.222 110.336 281.551 110.382 281.945 110.382C282.281 110.382 282.575 110.34 282.827 110.256C283.079 110.165 283.289 110.045 283.457 109.897C283.625 109.748 283.747 109.577 283.825 109.383C283.909 109.189 283.951 108.982 283.951 108.762C283.951 108.491 283.876 108.268 283.728 108.093C283.586 107.912 283.395 107.76 283.156 107.637C282.917 107.508 282.643 107.398 282.333 107.308C282.029 107.211 281.716 107.111 281.393 107.007C281.077 106.904 280.763 106.787 280.453 106.658C280.15 106.522 279.879 106.354 279.64 106.154C279.401 105.953 279.207 105.708 279.058 105.417C278.916 105.12 278.845 104.761 278.845 104.341C278.845 103.966 278.923 103.607 279.078 103.264C279.233 102.915 279.459 102.611 279.756 102.353C280.053 102.088 280.418 101.878 280.851 101.722C281.283 101.567 281.777 101.49 282.333 101.49C282.979 101.49 283.557 101.593 284.067 101.8C284.584 102 285.029 102.278 285.404 102.634L285.016 103.264Z" fill="#484A49"/>
<path d="M289.504 101.645V111.468H287.78V101.645H289.504ZM289.872 98.5614C289.872 98.7294 289.837 98.8878 289.766 99.0365C289.701 99.1787 289.611 99.308 289.494 99.4244C289.385 99.5342 289.252 99.6215 289.097 99.6862C288.949 99.7508 288.79 99.7831 288.623 99.7831C288.455 99.7831 288.296 99.7508 288.148 99.6862C288.006 99.6215 287.88 99.5342 287.77 99.4244C287.66 99.308 287.573 99.1787 287.508 99.0365C287.444 98.8878 287.412 98.7294 287.412 98.5614C287.412 98.3933 287.444 98.2349 287.508 98.0862C287.573 97.9311 287.66 97.7986 287.77 97.6887C287.88 97.5723 288.006 97.4818 288.148 97.4172C288.296 97.3525 288.455 97.3202 288.623 97.3202C288.79 97.3202 288.949 97.3525 289.097 97.4172C289.252 97.4818 289.385 97.5723 289.494 97.6887C289.611 97.7986 289.701 97.9311 289.766 98.0862C289.837 98.2349 289.872 98.3933 289.872 98.5614Z" fill="#484A49"/>
<path d="M296.474 101.49C297.191 101.49 297.837 101.609 298.412 101.849C298.987 102.088 299.477 102.427 299.884 102.867C300.291 103.306 300.601 103.84 300.814 104.467C301.034 105.087 301.144 105.782 301.144 106.551C301.144 107.327 301.034 108.025 300.814 108.646C300.601 109.266 300.291 109.797 299.884 110.236C299.477 110.676 298.987 111.015 298.412 111.254C297.837 111.487 297.191 111.603 296.474 111.603C295.751 111.603 295.099 111.487 294.517 111.254C293.942 111.015 293.452 110.676 293.045 110.236C292.638 109.797 292.325 109.266 292.105 108.646C291.892 108.025 291.785 107.327 291.785 106.551C291.785 105.782 291.892 105.087 292.105 104.467C292.325 103.84 292.638 103.306 293.045 102.867C293.452 102.427 293.942 102.088 294.517 101.849C295.099 101.609 295.751 101.49 296.474 101.49ZM296.474 110.256C297.443 110.256 298.166 109.932 298.644 109.286C299.122 108.633 299.361 107.725 299.361 106.561C299.361 105.391 299.122 104.48 298.644 103.827C298.166 103.174 297.443 102.847 296.474 102.847C295.983 102.847 295.554 102.931 295.186 103.099C294.824 103.267 294.521 103.51 294.275 103.827C294.036 104.143 293.855 104.535 293.733 105C293.616 105.459 293.558 105.979 293.558 106.561C293.558 107.725 293.797 108.633 294.275 109.286C294.76 109.932 295.493 110.256 296.474 110.256Z" fill="#484A49"/>
<path d="M304.959 103.07C305.172 102.831 305.398 102.615 305.637 102.421C305.876 102.227 306.128 102.062 306.392 101.926C306.664 101.784 306.948 101.677 307.245 101.606C307.548 101.529 307.875 101.49 308.223 101.49C308.759 101.49 309.231 101.58 309.638 101.761C310.051 101.936 310.393 102.188 310.665 102.518C310.942 102.841 311.152 103.232 311.294 103.691C311.436 104.15 311.508 104.657 311.508 105.213V111.468H309.773V105.213C309.773 104.47 309.602 103.895 309.26 103.487C308.924 103.074 308.411 102.867 307.72 102.867C307.209 102.867 306.731 102.989 306.286 103.235C305.847 103.481 305.44 103.814 305.065 104.234V111.468H303.331V101.645H304.368C304.613 101.645 304.765 101.764 304.823 102.004L304.959 103.07Z" fill="#484A49"/>
<path d="M319.851 103.264C319.773 103.406 319.654 103.478 319.493 103.478C319.396 103.478 319.286 103.442 319.163 103.371C319.041 103.3 318.889 103.222 318.708 103.138C318.534 103.048 318.324 102.967 318.078 102.896C317.833 102.818 317.542 102.779 317.206 102.779C316.916 102.779 316.654 102.818 316.422 102.896C316.189 102.967 315.989 103.067 315.821 103.196C315.659 103.326 315.534 103.478 315.443 103.652C315.359 103.82 315.317 104.004 315.317 104.205C315.317 104.457 315.388 104.667 315.53 104.835C315.679 105.003 315.873 105.149 316.112 105.271C316.35 105.394 316.622 105.504 316.925 105.601C317.229 105.692 317.539 105.792 317.855 105.902C318.178 106.005 318.492 106.122 318.795 106.251C319.099 106.38 319.37 106.542 319.609 106.736C319.848 106.93 320.038 107.169 320.18 107.453C320.329 107.731 320.403 108.067 320.403 108.462C320.403 108.914 320.323 109.334 320.161 109.722C320 110.104 319.761 110.437 319.444 110.721C319.128 110.999 318.74 111.219 318.282 111.38C317.823 111.542 317.293 111.623 316.693 111.623C316.008 111.623 315.388 111.513 314.833 111.293C314.277 111.067 313.806 110.779 313.418 110.43L313.825 109.771C313.877 109.687 313.938 109.622 314.009 109.577C314.08 109.531 314.171 109.509 314.281 109.509C314.397 109.509 314.52 109.554 314.649 109.645C314.778 109.735 314.933 109.835 315.114 109.945C315.301 110.055 315.527 110.155 315.792 110.246C316.057 110.336 316.386 110.382 316.78 110.382C317.116 110.382 317.41 110.34 317.662 110.256C317.913 110.165 318.123 110.045 318.291 109.897C318.459 109.748 318.582 109.577 318.659 109.383C318.743 109.189 318.785 108.982 318.785 108.762C318.785 108.491 318.711 108.268 318.563 108.093C318.42 107.912 318.23 107.76 317.991 107.637C317.752 107.508 317.478 107.398 317.168 107.308C316.864 107.211 316.551 107.111 316.228 107.007C315.911 106.904 315.598 106.787 315.288 106.658C314.984 106.522 314.713 106.354 314.474 106.154C314.235 105.953 314.042 105.708 313.893 105.417C313.751 105.12 313.68 104.761 313.68 104.341C313.68 103.966 313.757 103.607 313.912 103.264C314.067 102.915 314.293 102.611 314.591 102.353C314.888 102.088 315.253 101.878 315.685 101.722C316.118 101.567 316.612 101.49 317.168 101.49C317.813 101.49 318.391 101.593 318.902 101.8C319.418 102 319.864 102.278 320.239 102.634L319.851 103.264Z" fill="#484A49"/>
<path d="M12.8804 53.4295C13.6382 57.9115 15.4294 61.3592 18.2539 63.7726C21.0785 66.117 24.5231 67.2892 28.5877 67.2892C31.6878 67.2892 34.3745 66.7376 36.648 65.6343C38.9214 64.5311 41.1603 62.9107 43.3649 60.7731L50.7018 67.2892C48.0839 70.3922 44.9494 72.8745 41.2981 74.7363C37.7158 76.598 33.4101 77.5289 28.381 77.5289C24.4542 77.5289 20.7685 76.8394 17.3239 75.4603C13.9482 74.0812 10.9859 72.1505 8.43689 69.6681C5.9568 67.1858 3.99339 64.2208 2.54667 60.7731C1.09995 57.2565 0.376587 53.3605 0.376587 49.0854C0.376587 45.155 1.03106 41.466 2.33999 38.0183C3.64893 34.5706 5.47456 31.5711 7.81687 29.0198C10.2281 26.3996 13.0526 24.331 16.2905 22.814C19.5284 21.297 23.1108 20.5385 27.0376 20.5385C31.3778 20.5385 35.1668 21.3315 38.4047 22.9174C41.7115 24.5033 44.4327 26.6409 46.5683 29.3301C48.7729 32.0193 50.4263 35.1567 51.5285 38.7423C52.6308 42.3279 53.1819 46.0859 53.1819 50.0163C53.1819 50.5679 53.1475 51.1195 53.0786 51.6712C53.0786 52.2228 53.0441 52.8089 52.9752 53.4295H12.8804ZM12.7771 45.155H40.7814C40.5748 43.1554 40.127 41.2936 39.4381 39.5698C38.7491 37.777 37.8191 36.26 36.648 35.0188C35.4768 33.7087 34.0645 32.6744 32.4111 31.9159C30.8266 31.1574 29.001 30.7781 26.9343 30.7781C23.0763 30.7781 19.8729 32.1228 17.3239 34.812C14.8438 37.4322 13.3282 40.8799 12.7771 45.155Z" fill="#463FB1"/>
<path d="M76.1761 45.4653V76.2877H63.6723V21.6762H76.1761V30.1576C77.0717 28.8474 78.0361 27.6407 79.0695 26.5375C80.1718 25.3653 81.4118 24.331 82.7896 23.4346C84.2364 22.5382 85.7864 21.8486 87.4398 21.3659C89.1621 20.8143 91.0911 20.5385 93.2267 20.5385C99.4269 20.5385 104.215 22.4347 107.591 26.2272C110.966 30.0197 112.654 35.1222 112.654 41.535V76.2877H100.15V45.2585C100.15 40.9833 99.1169 37.708 97.0502 35.4325C95.0523 33.0881 92.1933 31.9159 88.4732 31.9159C84.8219 31.9159 81.8596 33.1226 79.5862 35.536C77.3128 37.8804 76.1761 41.1902 76.1761 45.4653Z" fill="#463FB1"/>
<path d="M173.222 67.2892C170.535 70.3232 167.469 72.8055 164.025 74.7363C160.58 76.598 156.206 77.5289 150.901 77.5289C146.836 77.5289 143.082 76.8049 139.637 75.3568C136.193 73.8399 133.196 71.8057 130.647 69.2544C128.167 66.6342 126.203 63.6347 124.757 60.2559C123.379 56.8082 122.69 53.1192 122.69 49.1888C122.69 45.2585 123.379 41.5694 124.757 38.1217C126.203 34.674 128.167 31.6401 130.647 29.0198C133.196 26.3996 136.193 24.331 139.637 22.814C143.151 21.297 146.94 20.5385 151.004 20.5385C156.171 20.5385 160.442 21.4004 163.818 23.1243C167.263 24.8481 170.259 27.1236 172.808 29.9507L165.058 38.3286C163.129 36.3289 161.062 34.7085 158.858 33.4673C156.722 32.1572 154.07 31.5022 150.901 31.5022C148.628 31.5022 146.526 31.9848 144.597 32.9502C142.668 33.8466 141.015 35.0878 139.637 36.6737C138.259 38.2596 137.157 40.1214 136.33 42.259C135.573 44.3276 135.194 46.5686 135.194 48.982C135.194 51.4643 135.573 53.7743 136.33 55.9118C137.157 58.0494 138.294 59.9112 139.741 61.4971C141.187 63.083 142.91 64.3587 144.907 65.3241C146.905 66.2205 149.11 66.6686 151.521 66.6686C154.483 66.6686 157.067 66.0481 159.271 64.8069C161.545 63.4968 163.68 61.8419 165.678 59.8422L173.222 67.2892Z" fill="#463FB1"/>
<path d="M195.883 76.2877H183.379V0.783203H195.883V76.2877Z" fill="#463FB1"/>
<path d="M255.935 76.2877H243.535V69.5647C241.675 71.7712 239.298 73.633 236.404 75.15C233.511 76.667 229.998 77.4255 225.864 77.4255C223.246 77.4255 220.766 77.0462 218.424 76.2877C216.081 75.5982 214.015 74.5639 212.224 73.1848C210.501 71.7368 209.089 69.9784 207.987 67.9098C206.953 65.7723 206.437 63.3244 206.437 60.5662V60.3594C206.437 57.3943 206.988 54.8086 208.09 52.6021C209.192 50.3955 210.708 48.5683 212.637 47.1202C214.635 45.6722 216.977 44.6034 219.664 43.9139C222.419 43.1554 225.382 42.7761 228.551 42.7761C231.858 42.7761 234.648 42.983 236.921 43.3967C239.263 43.8104 241.502 44.3621 243.638 45.0516V43.707C243.638 39.9145 242.467 37.0185 240.125 35.0188C237.851 33.0192 234.544 32.0193 230.204 32.0193C227.104 32.0193 224.348 32.3296 221.937 32.9502C219.526 33.5708 217.08 34.3982 214.6 35.4325L211.19 25.3997C214.221 24.0207 217.322 22.9174 220.491 22.09C223.66 21.2625 227.483 20.8488 231.961 20.8488C240.09 20.8488 246.118 22.8829 250.045 26.9512C253.972 30.9505 255.935 36.6048 255.935 43.9139V76.2877ZM243.845 56.5324V53.1192C242.26 52.4986 240.366 51.9815 238.161 51.5677C236.026 51.154 233.752 50.9472 231.341 50.9472C227.414 50.9472 224.348 51.7057 222.144 53.2226C219.939 54.7396 218.837 56.9117 218.837 59.7388V59.9456C218.837 62.5659 219.836 64.5656 221.834 65.9446C223.901 67.3237 226.415 68.0133 229.378 68.0133C231.444 68.0133 233.339 67.7374 235.061 67.1858C236.852 66.6342 238.402 65.8757 239.711 64.9103C241.02 63.876 242.019 62.6693 242.708 61.2903C243.466 59.8422 243.845 58.2563 243.845 56.5324Z" fill="#463FB1"/>
<path d="M289.663 61.8074L304.44 21.6762H317.564L295.243 76.7014H283.979L261.555 21.6762H274.989L289.663 61.8074Z" fill="#463FB1"/>
<path d="M360.29 53.4289C359.532 57.9109 357.741 61.3586 354.916 63.772C352.091 66.1164 348.647 67.2886 344.582 67.2886C341.482 67.2886 338.795 66.737 336.522 65.6338C334.249 64.5305 332.01 62.9101 329.805 60.7725L322.468 67.2886C325.086 70.3916 328.221 72.8739 331.872 74.7357C335.454 76.5974 339.76 77.5283 344.789 77.5283C348.716 77.5283 352.401 76.8388 355.846 75.4597C359.222 74.0806 362.184 72.1499 364.733 69.6675C367.213 67.1852 369.176 64.2202 370.623 60.7725C372.07 57.2559 372.793 53.36 372.793 49.0848C372.793 45.1544 372.139 41.4654 370.83 38.0177C369.521 34.57 367.695 31.5705 365.353 29.0192C362.942 26.399 360.117 24.3304 356.879 22.8134C353.641 21.2964 350.059 20.5379 346.132 20.5379C341.792 20.5379 338.003 21.3309 334.765 22.9168C331.458 24.5028 328.737 26.6403 326.602 29.3295C324.397 32.0187 322.744 35.1561 321.641 38.7417C320.539 42.3273 319.988 46.0853 319.988 50.0157C319.988 50.5673 320.022 51.119 320.091 51.6706C320.091 52.2222 320.126 52.8083 320.195 53.4289H360.29ZM360.393 45.1544H332.388C332.595 43.1548 333.043 41.293 333.732 39.5692C334.421 37.7764 335.351 36.2594 336.522 35.0182C337.693 33.7081 339.105 32.6738 340.759 31.9153C342.343 31.1568 344.169 30.7776 346.236 30.7776C350.094 30.7776 353.297 32.1222 355.846 34.8114C358.326 37.4316 359.842 40.8793 360.393 45.1544Z" fill="#463FB1"/>
</svg>
