<svg width="30" height="67" viewBox="0 0 30 67" fill="none" xmlns="http://www.w3.org/2000/svg">
<path d="M0.949577 0.454102C0.949577 0.337676 0.855195 0.243294 0.73877 0.243294C0.622344 0.243294 0.527962 0.337676 0.527962 0.454102H0.949577ZM0.73877 65.3828H0.527962V65.5937H0.73877V65.3828ZM27.4411 65.3828C27.4411 66.0038 27.9444 66.5071 28.5654 66.5071C29.1863 66.5071 29.6897 66.0038 29.6897 65.3828C29.6897 64.7619 29.1863 64.2585 28.5654 64.2585C27.9444 64.2585 27.4411 64.7619 27.4411 65.3828ZM0.527962 0.454102V65.3828H0.949577V0.454102H0.527962ZM0.73877 65.5937H28.5654V65.172H0.73877V65.5937Z" fill="#FFF5EC"/>
</svg>
