<svg width="21" height="46" viewBox="0 0 21 46" fill="none" xmlns="http://www.w3.org/2000/svg">
<path d="M1.14904 0.454102C1.14904 0.337676 1.05466 0.243294 0.938232 0.243294C0.821807 0.243294 0.727425 0.337676 0.727425 0.454102H1.14904ZM0.938232 44.3021H0.727425V44.5129H0.938232V44.3021ZM18.365 44.3021C18.365 44.923 18.8684 45.4264 19.4893 45.4264C20.1102 45.4264 20.6136 44.923 20.6136 44.3021C20.6136 43.6811 20.1102 43.1778 19.4893 43.1778C18.8684 43.1778 18.365 43.6811 18.365 44.3021ZM0.727425 0.454102V44.3021H1.14904V0.454102H0.727425ZM0.938232 44.5129H19.4893V44.0913H0.938232V44.5129Z" fill="#FFF5EC"/>
</svg>
