<svg width="24" height="25" viewBox="0 0 24 25" fill="none" xmlns="http://www.w3.org/2000/svg">
<path d="M8 2.5H5C4.20435 2.5 3.44129 2.81607 2.87868 3.37868C2.31607 3.94129 2 4.70435 2 5.5V8.5C2 9.29565 2.31607 10.0587 2.87868 10.6213C3.44129 11.1839 4.20435 11.5 5 11.5H8C8.79565 11.5 9.55871 11.1839 10.1213 10.6213C10.6839 10.0587 11 9.29565 11 8.5V5.5C11 4.70435 10.6839 3.94129 10.1213 3.37868C9.55871 2.81607 8.79565 2.5 8 2.5ZM9 8.5C9 8.76522 8.89464 9.01957 8.70711 9.20711C8.51957 9.39464 8.26522 9.5 8 9.5H5C4.73478 9.5 4.48043 9.39464 4.29289 9.20711C4.10536 9.01957 4 8.76522 4 8.5V5.5C4 5.23478 4.10536 4.98043 4.29289 4.79289C4.48043 4.60536 4.73478 4.5 5 4.5H8C8.26522 4.5 8.51957 4.60536 8.70711 4.79289C8.89464 4.98043 9 5.23478 9 5.5V8.5ZM19 13.5H16C15.2044 13.5 14.4413 13.8161 13.8787 14.3787C13.3161 14.9413 13 15.7044 13 16.5V19.5C13 20.2956 13.3161 21.0587 13.8787 21.6213C14.4413 22.1839 15.2044 22.5 16 22.5H19C19.7956 22.5 20.5587 22.1839 21.1213 21.6213C21.6839 21.0587 22 20.2956 22 19.5V16.5C22 15.7044 21.6839 14.9413 21.1213 14.3787C20.5587 13.8161 19.7956 13.5 19 13.5ZM20 19.5C20 19.7652 19.8946 20.0196 19.7071 20.2071C19.5196 20.3946 19.2652 20.5 19 20.5H16C15.7348 20.5 15.4804 20.3946 15.2929 20.2071C15.1054 20.0196 15 19.7652 15 19.5V16.5C15 16.2348 15.1054 15.9804 15.2929 15.7929C15.4804 15.6054 15.7348 15.5 16 15.5H19C19.2652 15.5 19.5196 15.6054 19.7071 15.7929C19.8946 15.9804 20 16.2348 20 16.5V19.5ZM14 5.5H21C21.2652 5.5 21.5196 5.39464 21.7071 5.20711C21.8946 5.01957 22 4.76522 22 4.5C22 4.23478 21.8946 3.98043 21.7071 3.79289C21.5196 3.60536 21.2652 3.5 21 3.5H14C13.7348 3.5 13.4804 3.60536 13.2929 3.79289C13.1054 3.98043 13 4.23478 13 4.5C13 4.76522 13.1054 5.01957 13.2929 5.20711C13.4804 5.39464 13.7348 5.5 14 5.5ZM21 8.5H14C13.7348 8.5 13.4804 8.60536 13.2929 8.79289C13.1054 8.98043 13 9.23478 13 9.5C13 9.76522 13.1054 10.0196 13.2929 10.2071C13.4804 10.3946 13.7348 10.5 14 10.5H21C21.2652 10.5 21.5196 10.3946 21.7071 10.2071C21.8946 10.0196 22 9.76522 22 9.5C22 9.23478 21.8946 8.98043 21.7071 8.79289C21.5196 8.60536 21.2652 8.5 21 8.5ZM10 14.5H3C2.73478 14.5 2.48043 14.6054 2.29289 14.7929C2.10536 14.9804 2 15.2348 2 15.5C2 15.7652 2.10536 16.0196 2.29289 16.2071C2.48043 16.3946 2.73478 16.5 3 16.5H10C10.2652 16.5 10.5196 16.3946 10.7071 16.2071C10.8946 16.0196 11 15.7652 11 15.5C11 15.2348 10.8946 14.9804 10.7071 14.7929C10.5196 14.6054 10.2652 14.5 10 14.5ZM10 19.5H3C2.73478 19.5 2.48043 19.6054 2.29289 19.7929C2.10536 19.9804 2 20.2348 2 20.5C2 20.7652 2.10536 21.0196 2.29289 21.2071C2.48043 21.3946 2.73478 21.5 3 21.5H10C10.2652 21.5 10.5196 21.3946 10.7071 21.2071C10.8946 21.0196 11 20.7652 11 20.5C11 20.2348 10.8946 19.9804 10.7071 19.7929C10.5196 19.6054 10.2652 19.5 10 19.5Z" fill="#FFF5EC"/>
</svg>
