<svg width="24" height="25" viewBox="0 0 24 25" fill="none" xmlns="http://www.w3.org/2000/svg">
<g clip-path="url(#clip0_352_1319)">
<g clip-path="url(#clip1_352_1319)">
<path d="M6.83749 16.405C7.00624 16.5738 7.21999 16.6525 7.43374 16.6525C7.64749 16.6525 7.86124 16.5738 8.02999 16.405C8.35624 16.0788 8.35624 15.5388 8.02999 15.2125L4.31749 11.5L8.02999 7.78753C8.35624 7.46128 8.35624 6.92128 8.02999 6.59503C7.70374 6.26878 7.16374 6.26878 6.83749 6.59503L2.52875 10.9038C2.2025 11.23 2.2025 11.77 2.52875 12.0963L6.83749 16.405ZM13.97 16.405C14.1387 16.5738 14.3525 16.6525 14.5662 16.6525C14.78 16.6525 14.9937 16.5738 15.1625 16.405L19.4712 12.0963C19.6287 11.9388 19.7187 11.725 19.7187 11.5C19.7187 11.275 19.6287 11.0613 19.4712 10.9038L15.1625 6.59503C14.8362 6.26878 14.2962 6.26878 13.97 6.59503C13.6437 6.92128 13.6437 7.46128 13.97 7.78753L17.6825 11.5L13.97 15.2125C13.6325 15.55 13.6325 16.0788 13.97 16.405ZM11.8662 4.84003L8.50249 17.7325C8.38999 18.1825 8.65999 18.6438 9.10999 18.7675C9.17749 18.79 9.25624 18.79 9.32374 18.79C9.69499 18.79 10.0437 18.5425 10.145 18.16L13.5087 5.26753C13.6212 4.81753 13.3512 4.35628 12.9012 4.23253C12.44 4.12003 11.99 4.39003 11.8662 4.84003Z" fill="#FFF5EC"/>
</g>
</g>
<defs>
<clipPath id="clip0_352_1319">
<rect width="24" height="24" fill="white" transform="translate(0 0.5)"/>
</clipPath>
<clipPath id="clip1_352_1319">
<rect width="24" height="24" fill="white" transform="translate(-1 -0.5)"/>
</clipPath>
</defs>
</svg>
