<svg width="24" height="25" viewBox="0 0 24 25" fill="none" xmlns="http://www.w3.org/2000/svg">
<g clip-path="url(#clip0_352_1309)">
<path d="M20.2084 19.9168C20.2084 20.1268 20.1249 20.3281 19.9765 20.4766C19.828 20.6251 19.6266 20.7085 19.4167 20.7085H3.58335C3.37339 20.7085 3.17203 20.6251 3.02356 20.4766C2.87509 20.3281 2.79169 20.1268 2.79169 19.9168V4.08346C2.79169 3.87349 2.87509 3.67213 3.02356 3.52366C3.17203 3.3752 3.37339 3.29179 3.58335 3.29179C3.79332 3.29179 3.99468 3.3752 4.14315 3.52366C4.29161 3.67213 4.37502 3.87349 4.37502 4.08346V17.3043L9.2596 9.98137C9.33202 9.87361 9.42983 9.78531 9.54442 9.72426C9.65901 9.6632 9.78685 9.63127 9.91669 9.63127C10.0465 9.63127 10.1744 9.6632 10.289 9.72426C10.4035 9.78531 10.5014 9.87361 10.5738 9.98137L13.0279 13.6626L18.7279 3.68762C18.8329 3.50496 19.0062 3.37147 19.2096 3.31654C19.413 3.26161 19.6299 3.28973 19.8125 3.39471C19.9952 3.49969 20.1287 3.67294 20.1836 3.87633C20.2385 4.07973 20.2104 4.29662 20.1054 4.47929L13.7721 15.5626C13.7024 15.6834 13.6019 15.7837 13.481 15.8532C13.36 15.9227 13.2229 15.959 13.0834 15.9585C12.949 15.9618 12.8159 15.9308 12.6968 15.8685C12.5777 15.8061 12.4764 15.7145 12.4025 15.6022L9.91669 11.8418L5.06377 19.1251H19.4167C19.6266 19.1251 19.828 19.2085 19.9765 19.357C20.1249 19.5055 20.2084 19.7068 20.2084 19.9168Z" fill="#FFF5EC"/>
</g>
<defs>
<clipPath id="clip0_352_1309">
<rect width="24" height="24" fill="white" transform="translate(0 0.5)"/>
</clipPath>
</defs>
</svg>
