<svg width="24" height="25" viewBox="0 0 24 25" fill="none" xmlns="http://www.w3.org/2000/svg">
<g clip-path="url(#clip0_352_1299)">
<g clip-path="url(#clip1_352_1299)">
<path d="M19.8471 18.9863L16.5888 15.7375C17.64 14.3982 18.2105 12.7443 18.2083 11.0417C18.2083 9.52535 17.7587 8.04308 16.9163 6.7823C16.0738 5.52152 14.8765 4.53887 13.4756 3.95859C12.0747 3.37832 10.5332 3.2265 9.04598 3.52232C7.55879 3.81814 6.19272 4.54832 5.12052 5.62052C4.04832 6.69272 3.31814 8.05879 3.02232 9.54598C2.7265 11.0332 2.87832 12.5747 3.45859 13.9756C4.03887 15.3765 5.02152 16.5738 6.2823 17.4163C7.54308 18.2587 9.02535 18.7083 10.5417 18.7083C12.2443 18.7105 13.8982 18.14 15.2375 17.0888L18.4863 20.3471C18.5753 20.4369 18.6813 20.5082 18.7981 20.5569C18.9149 20.6055 19.0402 20.6306 19.1667 20.6306C19.2932 20.6306 19.4184 20.6055 19.5352 20.5569C19.652 20.5082 19.758 20.4369 19.8471 20.3471C19.9369 20.258 20.0082 20.152 20.0569 20.0352C20.1055 19.9184 20.1306 19.7932 20.1306 19.6667C20.1306 19.5402 20.1055 19.4149 20.0569 19.2981C20.0082 19.1813 19.9369 19.0753 19.8471 18.9863ZM4.79167 11.0417C4.79167 9.90443 5.1289 8.79272 5.76072 7.84714C6.39254 6.90156 7.29057 6.16457 8.34124 5.72936C9.39192 5.29416 10.548 5.18029 11.6634 5.40215C12.7788 5.62402 13.8034 6.17165 14.6075 6.97581C15.4117 7.77996 15.9593 8.80451 16.1812 9.9199C16.4031 11.0353 16.2892 12.1914 15.854 13.2421C15.4188 14.2928 14.6818 15.1908 13.7362 15.8226C12.7906 16.4544 11.6789 16.7917 10.5417 16.7917C9.01668 16.7917 7.55414 16.1859 6.47581 15.1075C5.39747 14.0292 4.79167 12.5667 4.79167 11.0417Z" fill="#FFF5EC"/>
</g>
</g>
<defs>
<clipPath id="clip0_352_1299">
<rect width="24" height="24" fill="white" transform="translate(0 0.5)"/>
</clipPath>
<clipPath id="clip1_352_1299">
<rect width="24" height="24" fill="white" transform="translate(-1 -0.5)"/>
</clipPath>
</defs>
</svg>
